<svg width="24" height="24" viewBox="0 0 24 24" fill="none" xmlns="http://www.w3.org/2000/svg">
<g clip-path="url(#clip0_544_30276)">
<path fill-rule="evenodd" clip-rule="evenodd" d="M15.4341 3.3371L16.3828 1.61084C16.4005 1.5679 16.4016 1.51995 16.3861 1.47619C16.3706 1.43243 16.3396 1.39592 16.2988 1.37365C16.2581 1.35138 16.2106 1.34491 16.1654 1.35549C16.1201 1.36607 16.0804 1.39294 16.0538 1.43098L15.0953 3.17479C14.2563 2.80521 13.3492 2.61542 12.4324 2.61764C11.4793 2.61764 10.5789 2.81615 9.77389 3.17259L8.81314 1.43098C8.80142 1.40928 8.78554 1.39012 8.7664 1.37457C8.74726 1.35902 8.72525 1.3474 8.70161 1.34038C8.67798 1.33335 8.65319 1.33105 8.62867 1.33361C8.60415 1.33617 8.58037 1.34354 8.5587 1.3553C8.5368 1.3668 8.51742 1.38257 8.5017 1.40168C8.48599 1.42079 8.47426 1.44285 8.46721 1.46656C8.46016 1.49028 8.45792 1.51516 8.46064 1.53975C8.46336 1.56434 8.47097 1.58814 8.48303 1.60974L9.4328 3.33381C7.56835 4.29236 6.3071 6.11623 6.3082 8.211L18.5544 8.2099C18.5544 6.11514 17.2975 4.29565 15.4341 3.3371ZM9.64557 6.00217C9.57831 6.0021 9.51172 5.98878 9.44961 5.96298C9.3875 5.93717 9.33107 5.89938 9.28356 5.85177C9.23606 5.80416 9.19839 5.74766 9.17272 5.68549C9.14704 5.62332 9.13387 5.55671 9.13394 5.48945C9.13401 5.42219 9.14733 5.3556 9.17314 5.29349C9.19894 5.23138 9.23673 5.17496 9.28434 5.12745C9.33195 5.07994 9.38845 5.04227 9.45062 5.0166C9.51279 4.99093 9.5794 4.97775 9.64666 4.97782C9.78265 4.97782 9.91306 5.03184 10.0092 5.128C10.1054 5.22415 10.1594 5.35456 10.1594 5.49055C10.1594 5.62653 10.1054 5.75694 10.0092 5.8531C9.91306 5.94925 9.78265 6.00327 9.64666 6.00327L9.64557 6.00217ZM18.5127 8.6804L18.5149 17.4675C18.5149 17.995 18.2275 18.4512 17.8042 18.7035C17.5809 18.8389 17.325 18.911 17.0639 18.9119L16.0724 18.913V21.9114C16.0723 22.1129 16.0272 22.3119 15.9405 22.4938C15.8539 22.6757 15.7278 22.8361 15.5714 22.9631C15.415 23.0902 15.2322 23.1809 15.0364 23.2285C14.8406 23.2761 14.6367 23.2795 14.4394 23.2385C14.1336 23.176 13.8586 23.01 13.6609 22.7685C13.4631 22.527 13.3546 22.2247 13.3536 21.9125V18.913H11.5166V21.9125C11.516 22.2722 11.3727 22.6168 11.1181 22.8708C10.8635 23.1248 10.5185 23.2673 10.1588 23.267C9.7994 23.2667 9.45471 23.124 9.20024 22.8702C8.94577 22.6163 8.80224 22.272 8.80108 21.9125V18.913H7.81292C7.24152 18.913 6.75237 18.5839 6.51658 18.1058C6.41615 17.9083 6.3632 17.6901 6.36194 17.4686L6.35974 8.6837L18.5127 8.6804ZM4.47226 8.42816C5.22243 8.42816 5.83221 9.03465 5.83221 9.78153V15.4517C5.83184 15.6969 5.76503 15.9375 5.63889 16.1479C5.51275 16.3582 5.33198 16.5305 5.11579 16.6463C4.8996 16.7622 4.65607 16.8173 4.41106 16.8059C4.16605 16.7944 3.92872 16.7168 3.72428 16.5813C3.53667 16.4585 3.38258 16.291 3.27592 16.0938C3.16927 15.8965 3.11342 15.6759 3.1134 15.4517L3.1123 9.78043C3.1123 9.03465 3.72099 8.42816 4.47226 8.42816ZM20.3969 8.42706C21.147 8.42706 21.7568 9.03246 21.7568 9.78043V15.4495C21.7568 16.1985 21.1481 16.8039 20.398 16.8039C19.6467 16.8039 19.038 16.1985 19.038 15.4495V9.77934C19.038 9.03136 19.6456 8.42487 20.3958 8.42596L20.3969 8.42706ZM15.2203 4.97892C15.2895 4.97571 15.3586 4.98657 15.4234 5.01084C15.4883 5.03511 15.5476 5.07228 15.5977 5.1201C15.6478 5.16793 15.6876 5.22541 15.7149 5.28908C15.7421 5.35276 15.7562 5.42129 15.7562 5.49055C15.7562 5.5598 15.7421 5.62834 15.7149 5.69201C15.6876 5.75568 15.6478 5.81317 15.5977 5.86099C15.5476 5.90882 15.4883 5.94599 15.4234 5.97025C15.3586 5.99452 15.2895 6.00538 15.2203 6.00217C15.1511 6.00538 15.082 5.99452 15.0171 5.97025C14.9523 5.94599 14.893 5.90882 14.8429 5.86099C14.7928 5.81317 14.7529 5.75568 14.7257 5.69201C14.6985 5.62834 14.6844 5.5598 14.6844 5.49055C14.6844 5.42129 14.6985 5.35276 14.7257 5.28908C14.7529 5.22541 14.7928 5.16793 14.8429 5.1201C14.893 5.07228 14.9523 5.03511 15.0171 5.01084C15.082 4.98657 15.1511 4.97571 15.2203 4.97892Z" fill="#87C527"/>
</g>
<defs>
<clipPath id="clip0_544_30276">
<rect width="24" height="24" fill="white"/>
</clipPath>
</defs>
</svg>
