<svg width="14" height="14" viewBox="0 0 14 14" fill="none" xmlns="http://www.w3.org/2000/svg">
<g clip-path="url(#clip0_620_42042)">
<path d="M10.1884 12.6335C9.54526 13.28 8.84309 13.1779 8.16717 12.8717C7.45188 12.5587 6.79564 12.5451 6.04098 12.8717C5.096 13.2936 4.59727 13.1711 4.03291 12.6335C0.830494 9.21075 1.30298 3.99835 4.93851 3.80782C5.82442 3.85546 6.44128 4.31137 6.9597 4.3522C7.73406 4.18889 8.4756 3.71936 9.30245 3.7806C10.2934 3.86226 11.0415 4.27054 11.5336 5.00545C9.4862 6.27793 9.97181 9.07466 11.8486 9.8572C11.4746 10.8779 10.989 11.8918 10.1818 12.6403L10.1884 12.6335ZM6.89408 3.767C6.79564 2.24955 7.98343 0.997485 9.34839 0.875C9.5387 2.63061 7.8128 3.93711 6.89408 3.767Z" fill="currentColor"/>
</g>
<defs>
<clipPath id="clip0_620_42042">
<rect width="14" height="14" fill="white"/>
</clipPath>
</defs>
</svg>
