<svg width="24" height="24" viewBox="0 0 24 24" fill="none" xmlns="http://www.w3.org/2000/svg">
<path d="M20.4 3H3.6C2.445 3 1.5105 3.945 1.5105 5.1L1.5 17.7C1.5 18.855 2.445 19.8 3.6 19.8H20.4C21.555 19.8 22.5 18.855 22.5 17.7V5.1C22.5 3.945 21.555 3 20.4 3ZM19.98 7.4625L12.5565 12.1035C12.2205 12.3135 11.7795 12.3135 11.4435 12.1035L4.02 7.4625C3.91471 7.4034 3.82251 7.32355 3.74898 7.22778C3.67545 7.13201 3.62212 7.02232 3.5922 6.90534C3.56229 6.78836 3.55643 6.66653 3.57496 6.54722C3.5935 6.42791 3.63605 6.31361 3.70005 6.21122C3.76404 6.10883 3.84814 6.02049 3.94726 5.95155C4.04638 5.8826 4.15846 5.83449 4.27672 5.81012C4.39498 5.78574 4.51695 5.78562 4.63525 5.80975C4.75356 5.83388 4.86574 5.88176 4.965 5.9505L12 10.35L19.035 5.9505C19.1343 5.88176 19.2464 5.83388 19.3647 5.80975C19.4831 5.78562 19.605 5.78574 19.7233 5.81012C19.8415 5.83449 19.9536 5.8826 20.0527 5.95155C20.1519 6.02049 20.236 6.10883 20.3 6.21122C20.3639 6.31361 20.4065 6.42791 20.425 6.54722C20.4436 6.66653 20.4377 6.78836 20.4078 6.90534C20.3779 7.02232 20.3245 7.13201 20.251 7.22778C20.1775 7.32355 20.0853 7.4034 19.98 7.4625Z" fill="#06AED4"/>
</svg>
