<svg width="24" height="24" viewBox="0 0 24 24" fill="none" xmlns="http://www.w3.org/2000/svg">
<path d="M8.55237 12.2276C8.81125 12.2276 9.0284 12.1398 9.20383 11.9644C9.37925 11.789 9.46666 11.5721 9.46605 11.3139C9.46605 11.055 9.37834 10.8379 9.20291 10.6624C9.02749 10.487 8.81064 10.3996 8.55237 10.4002C8.2935 10.4002 8.07635 10.4879 7.90092 10.6633C7.7255 10.8388 7.63809 11.0556 7.6387 11.3139C7.6387 11.5728 7.72641 11.7899 7.90184 11.9653C8.07726 12.1408 8.29411 12.2282 8.55237 12.2276ZM12.2071 12.2276C12.466 12.2276 12.6831 12.1398 12.8585 11.9644C13.034 11.789 13.1214 11.5721 13.1208 11.3139C13.1208 11.055 13.033 10.8379 12.8576 10.6624C12.6822 10.487 12.4653 10.3996 12.2071 10.4002C11.9482 10.4002 11.7311 10.4879 11.5556 10.6633C11.3802 10.8388 11.2928 11.0556 11.2934 11.3139C11.2934 11.5728 11.3811 11.7899 11.5565 11.9653C11.732 12.1408 11.9488 12.2282 12.2071 12.2276ZM15.8618 12.2276C16.1207 12.2276 16.3378 12.1398 16.5132 11.9644C16.6887 11.789 16.7761 11.5721 16.7755 11.3139C16.7755 11.055 16.6878 10.8379 16.5123 10.6624C16.3369 10.487 16.1201 10.3996 15.8618 10.4002C15.6029 10.4002 15.3858 10.4879 15.2103 10.6633C15.0349 10.8388 14.9475 11.0556 14.9481 11.3139C14.9481 11.5728 15.0358 11.7899 15.2113 11.9653C15.3867 12.1408 15.6035 12.2282 15.8618 12.2276ZM6.72502 18.6233L4.62356 20.7247C4.33423 21.0141 4.00287 21.079 3.62948 20.9194C3.25609 20.7598 3.0697 20.4741 3.07031 20.0623V5.83182C3.07031 5.3293 3.24939 4.89896 3.60756 4.5408C3.96572 4.18264 4.39575 4.00386 4.89767 4.00447H19.5165C20.019 4.00447 20.4494 4.18355 20.8075 4.54171C21.1657 4.89987 21.3445 5.32991 21.3438 5.83182V16.7959C21.3438 17.2985 21.1648 17.7288 20.8066 18.087C20.4484 18.4451 20.0184 18.6239 19.5165 18.6233H6.72502Z" fill="#009787"/>
</svg>
