<svg width="24" height="24" viewBox="0 0 24 24" fill="none" xmlns="http://www.w3.org/2000/svg">
<path d="M14.3437 19.35C15.2519 19.35 15.7318 20.4252 15.1259 21.1014C14.7323 21.5418 14.2501 21.8941 13.7109 22.1351C13.1717 22.3761 12.5876 22.5005 11.9969 22.5C11.4063 22.5005 10.8222 22.3761 10.2829 22.1351C9.7437 21.8941 9.26149 21.5418 8.86792 21.1014C8.28832 20.4546 8.70202 19.4434 9.53362 19.3573L9.64912 19.351L14.3437 19.35ZM11.9969 1.5C13.4228 1.5 14.6282 2.44815 15.0157 3.74805L15.064 3.9276L15.0724 3.97275C16.2299 4.62575 17.2162 5.54366 17.9506 6.6513C18.6851 7.75894 19.1466 9.0248 19.2976 10.3452L19.327 10.6465L19.3469 10.95V14.0275L19.369 14.1703C19.5127 14.944 19.9409 15.6358 20.5691 16.1097L20.7445 16.2325L20.9146 16.3365C21.8176 16.8478 21.5026 18.1908 20.5187 18.2937L20.3969 18.3H3.59692C2.51752 18.3 2.14057 16.8678 3.07927 16.3365C3.47935 16.1101 3.82503 15.7988 4.09203 15.4246C4.35904 15.0504 4.54091 14.6223 4.62487 14.1703L4.64692 14.0202L4.64797 10.9017C4.71199 9.53027 5.11119 8.19544 5.81062 7.01404C6.51005 5.83264 7.48839 4.84068 8.66002 4.125L8.92042 3.9717L8.93092 3.92655C9.07944 3.29868 9.41701 2.73148 9.89806 2.3015C10.3791 1.87153 10.9805 1.59947 11.621 1.52205L11.8121 1.5042L11.9969 1.5Z" fill="#2E70E8"/>
</svg>
