<svg width="24" height="24" viewBox="0 0 24 24" fill="none" xmlns="http://www.w3.org/2000/svg">
<path d="M17.4654 21.6575C16.3629 22.7656 15.1592 22.5907 14.0004 22.0657C12.7742 21.5291 11.6493 21.5058 10.3555 22.0657C8.73559 22.789 7.88061 22.579 6.91314 21.6575C1.42329 15.7899 2.23326 6.85433 8.46559 6.5277C9.9843 6.60936 11.0418 7.39092 11.9305 7.46092C13.258 7.18095 14.5292 6.37605 15.9466 6.48104C17.6453 6.62102 18.9278 7.32093 19.7715 8.58077C16.2616 10.7622 17.0941 15.5566 20.3115 16.8981C19.6703 18.6478 18.8378 20.3859 17.4541 21.6691L17.4654 21.6575ZM11.818 6.45771C11.6493 3.85637 13.6855 1.70998 16.0254 1.5C16.3516 4.50962 13.393 6.74934 11.818 6.45771Z" fill="black"/>
</svg>
