<svg width="24" height="24" viewBox="0 0 24 24" fill="none" xmlns="http://www.w3.org/2000/svg">
<path d="M19.8733 8.05113C20.3923 8.05113 20.8997 7.89723 21.3312 7.6089C21.7627 7.32056 22.099 6.91074 22.2976 6.43125C22.4963 5.95177 22.5482 5.42416 22.447 4.91514C22.3457 4.40612 22.0958 3.93856 21.7288 3.57157C21.3618 3.20459 20.8943 2.95468 20.3853 2.85343C19.8762 2.75217 19.3486 2.80414 18.8691 3.00275C18.3897 3.20136 17.9798 3.53769 17.6915 3.96922C17.4032 4.40074 17.2493 4.90808 17.2493 5.42707C17.2493 6.12301 17.5257 6.79045 18.0178 7.28256C18.5099 7.77467 19.1774 8.05113 19.8733 8.05113ZM19.8733 4.11504C20.1328 4.11504 20.3865 4.19198 20.6023 4.33615C20.818 4.48032 20.9862 4.68523 21.0855 4.92497C21.1848 5.16472 21.2108 5.42852 21.1601 5.68303C21.1095 5.93754 20.9846 6.17132 20.8011 6.35481C20.6176 6.5383 20.3838 6.66326 20.1293 6.71389C19.8748 6.76451 19.611 6.73853 19.3712 6.63923C19.1315 6.53992 18.9266 6.37176 18.7824 6.15599C18.6382 5.94023 18.5613 5.68656 18.5613 5.42707C18.5613 5.07909 18.6995 4.74537 18.9456 4.49932C19.1916 4.25327 19.5254 4.11504 19.8733 4.11504ZM21.4215 9.36316H14.6252V9.127C15.3055 8.88649 15.9065 8.46362 16.3627 7.90461C16.8189 7.3456 17.1126 6.67195 17.2119 5.95728C17.3111 5.24261 17.212 4.51442 16.9253 3.85228C16.6387 3.19014 16.1755 2.61953 15.5865 2.2028C14.9975 1.78607 14.3053 1.53926 13.5855 1.48935C12.8657 1.43943 12.146 1.58832 11.5051 1.91976C10.8642 2.25119 10.3268 2.75241 9.95145 3.36865C9.57615 3.98488 9.37745 4.69242 9.37707 5.41395H2.81691C2.46894 5.41395 2.13522 5.55218 1.88917 5.79823C1.64311 6.04429 1.50488 6.37801 1.50488 6.72598V17.2222C1.50488 17.5702 1.64311 17.9039 1.88917 18.15C2.13522 18.396 2.46894 18.5343 2.81691 18.5343H7.08102C7.46563 19.6281 8.16379 20.5844 9.08841 21.284C10.013 21.9836 11.1232 22.3955 12.2804 22.4683C13.4375 22.541 14.5905 22.2715 15.5955 21.6932C16.6005 21.1149 17.4129 20.2535 17.9315 19.2165C18.2486 19.2996 18.5747 19.3437 18.9024 19.3477C19.8536 19.3477 20.766 18.9708 21.4398 18.2994C22.1136 17.6281 22.4939 16.717 22.4974 15.7659V10.439C22.4974 10.1537 22.384 9.88004 22.1823 9.67828C21.9805 9.47651 21.7069 9.36316 21.4215 9.36316ZM13.3132 2.803C13.89 2.80403 14.4503 2.99506 14.9077 3.34656C15.365 3.69806 15.6937 4.19044 15.8431 4.74756C15.9924 5.30467 15.9541 5.89548 15.7339 6.4286C15.5138 6.96173 15.1241 7.40747 14.6252 7.69688V6.7391C14.6252 6.39113 14.487 6.05741 14.2409 5.81135C13.9949 5.5653 13.6611 5.42707 13.3132 5.42707H10.6891C10.6891 4.73112 10.9656 4.06368 11.4577 3.57157C11.9498 3.07947 12.6172 2.803 13.3132 2.803ZM17.2493 16.5793C17.2542 17.6259 16.9015 18.6427 16.2496 19.4614C15.5977 20.2801 14.6858 20.8515 13.6647 21.0812C12.6437 21.3108 11.5749 21.1848 10.6353 20.724C9.69564 20.2632 8.9416 19.4952 8.49801 18.5474H13.3132C13.6611 18.5474 13.9949 18.4092 14.2409 18.1631C14.487 17.917 14.6252 17.5833 14.6252 17.2354V10.6752H17.2493V16.5793ZM21.1854 15.779C21.1819 16.3822 20.9398 16.9595 20.5121 17.3848C20.0843 17.8101 19.5056 18.0488 18.9024 18.0488C18.7299 18.0472 18.5581 18.0251 18.3907 17.9832C18.5015 17.5234 18.5587 17.0523 18.5613 16.5793V10.6752H21.1854V15.779ZM7.73703 16.2513V9.69117H5.11297V7.72312H12.3291V9.69117H9.70508V16.2513H7.73703Z" fill="#5059C9"/>
</svg>
