<svg width="24" height="24" viewBox="0 0 24 24" fill="none" xmlns="http://www.w3.org/2000/svg">
<path d="M6.20103 14.6361C6.20103 15.7925 5.25639 16.7371 4.10003 16.7371C2.94366 16.7371 1.99902 15.7925 1.99902 14.6361C1.99902 13.4798 2.94366 12.5351 4.10003 12.5351H6.20103V14.6361Z" fill="#E01E5A"/>
<path d="M7.25977 14.6361C7.25977 13.4798 8.2044 12.5351 9.36077 12.5351C10.5171 12.5351 11.4618 13.4798 11.4618 14.6361V19.8968C11.4618 21.0531 10.5171 21.9978 9.36077 21.9978C8.2044 21.9978 7.25977 21.0531 7.25977 19.8968V14.6361Z" fill="#E01E5A"/>
<path d="M9.36077 6.20118C8.2044 6.20118 7.25977 5.25654 7.25977 4.10018C7.25977 2.94381 8.2044 1.99917 9.36077 1.99917C10.5171 1.99917 11.4618 2.94381 11.4618 4.10018V6.20118H9.36077Z" fill="#36C5F0"/>
<path d="M9.36068 7.25979C10.517 7.25979 11.4617 8.20443 11.4617 9.3608C11.4617 10.5172 10.517 11.4618 9.36068 11.4618H4.10003C2.94366 11.4618 1.99902 10.5172 1.99902 9.3608C1.99902 8.20443 2.94366 7.25979 4.10003 7.25979H9.36068Z" fill="#36C5F0"/>
<path d="M17.7969 9.3608C17.7969 8.20443 18.7415 7.25979 19.8979 7.25979C21.0542 7.25979 21.9989 8.20443 21.9989 9.3608C21.9989 10.5172 21.0542 11.4618 19.8979 11.4618H17.7969V9.3608Z" fill="#2EB67D"/>
<path d="M16.7381 9.36078C16.7381 10.5171 15.7935 11.4618 14.6371 11.4618C13.4808 11.4618 12.5361 10.5171 12.5361 9.36078V4.10013C12.5361 2.94376 13.4808 1.99912 14.6371 1.99912C15.7935 1.99912 16.7381 2.94376 16.7381 4.10013V9.36078Z" fill="#2EB67D"/>
<path d="M14.6371 17.7957C15.7935 17.7957 16.7381 18.7404 16.7381 19.8967C16.7381 21.0531 15.7935 21.9978 14.6371 21.9978C13.4808 21.9978 12.5361 21.0531 12.5361 19.8967V17.7957H14.6371Z" fill="#ECB22E"/>
<path d="M14.6371 16.7371C13.4808 16.7371 12.5361 15.7925 12.5361 14.6361C12.5361 13.4798 13.4808 12.5351 14.6371 12.5351H19.8978C21.0542 12.5351 21.9988 13.4798 21.9988 14.6361C21.9988 15.7925 21.0542 16.7371 19.8978 16.7371H14.6371Z" fill="#ECB22E"/>
</svg>
