<svg width="24" height="24" viewBox="0 0 24 24" fill="none" xmlns="http://www.w3.org/2000/svg">
<path d="M23.7048 18.7612L21.6 15.604V4.80402C21.6 3.48162 20.52 2.40402 19.2 2.40402H4.8C3.4788 2.40402 2.4 3.48162 2.4 4.80402V15.604L0.2952 18.7612C0 19.204 0 19.4596 0 19.804V20.404C0 21.004 0.6 21.604 1.1988 21.604H22.8012C23.4 21.604 24 21.004 24 20.404V19.804C24 19.4596 24 19.204 23.7048 18.7612ZM8.4 19.204L9.12 18.004H14.88L15.6 19.204H8.4ZM19.2 14.404H4.8V4.80402H19.2V14.404Z" fill="#7A5AF8"/>
</svg>
