<svg width="24" height="24" viewBox="0 0 24 24" fill="none" xmlns="http://www.w3.org/2000/svg">
<path d="M12 1.5C17.7992 1.5 22.5 6.20085 22.5 12C22.5 17.7991 17.7992 22.5 12 22.5C10.1444 22.503 8.3215 22.0119 6.71851 21.0772L1.50421 22.5L2.92381 17.2836C1.98836 15.6801 1.49691 13.8564 1.50001 12C1.50001 6.20085 6.20086 1.5 12 1.5ZM8.42161 7.065L8.21161 7.0734C8.07566 7.08168 7.94279 7.1174 7.82101 7.1784C7.70711 7.2429 7.60313 7.32353 7.51231 7.4178C7.38631 7.53645 7.31491 7.63935 7.23826 7.7391C6.84989 8.24405 6.64078 8.86398 6.64396 9.501C6.64606 10.0155 6.78046 10.5163 6.99046 10.9846C7.41991 11.9317 8.12656 12.9345 9.05896 13.8637C9.28366 14.0874 9.50416 14.3121 9.74146 14.521C10.9 15.5411 12.2806 16.2767 13.7735 16.6693L14.3699 16.7607C14.5641 16.7712 14.7584 16.7565 14.9537 16.747C15.2595 16.7313 15.558 16.6485 15.8283 16.5045C15.9658 16.4337 16.1 16.3566 16.2305 16.2735C16.2305 16.2735 16.2756 16.2441 16.3617 16.179C16.5035 16.074 16.5906 15.9994 16.7082 15.8766C16.7954 15.7863 16.871 15.6802 16.9287 15.5595C17.0106 15.3883 17.0925 15.0618 17.1261 14.7898C17.1513 14.5819 17.144 14.4685 17.1408 14.3982C17.1366 14.2858 17.0432 14.1693 16.9413 14.1199L16.3302 13.8459C16.3302 13.8459 15.4167 13.4479 14.8581 13.1938C14.7997 13.1683 14.737 13.1537 14.6733 13.1508C14.6015 13.1434 14.5289 13.1515 14.4604 13.1745C14.392 13.1975 14.3292 13.2349 14.2764 13.2841C14.2712 13.282 14.2008 13.3419 13.4417 14.2617C13.3981 14.3202 13.3381 14.3645 13.2692 14.3888C13.2004 14.4131 13.1259 14.4164 13.0553 14.3982C12.9869 14.3798 12.9198 14.3567 12.8547 14.3289C12.7245 14.2743 12.6794 14.2533 12.5901 14.2155C11.9875 13.9525 11.4295 13.5972 10.9364 13.1623C10.8041 13.0468 10.6812 12.9208 10.5552 12.799C10.1421 12.4034 9.78212 11.9559 9.48421 11.4676L9.42226 11.3679C9.37776 11.3009 9.34179 11.2286 9.31516 11.1526C9.27526 10.9983 9.37921 10.8744 9.37921 10.8744C9.37921 10.8744 9.63436 10.5951 9.75301 10.4439C9.86851 10.2969 9.96616 10.1541 10.0292 10.0522C10.1531 9.85275 10.1919 9.648 10.1268 9.48945C9.83281 8.77125 9.52831 8.0562 9.21541 7.3464C9.15346 7.2057 8.96971 7.1049 8.80276 7.08495C8.74606 7.07865 8.68936 7.07235 8.63266 7.06815C8.49165 7.06114 8.35035 7.06255 8.20951 7.07235L8.42161 7.065Z" fill="#25D366"/>
</svg>
